<svg xmlns="http://www.w3.org/2000/svg" width="1600" height="900" viewBox="0 0 1600 900" fill="none">
  <rect width="1600" height="900" fill="#F7EFE3"/>
  <path d="M164 714C312 593 372 398 536 345C699 292 806 491 958 492C1111 493 1188 282 1344 256" stroke="#C5AD88" stroke-width="18" stroke-linecap="round" opacity="0.55"/>
  <path d="M163 478C254 437 320 396 387 326C472 238 584 140 724 149C879 159 945 315 1072 352C1194 388 1307 273 1437 209" stroke="#B69262" stroke-width="10" stroke-linecap="round" opacity="0.65"/>
  <path d="M248 233C378 255 475 186 560 142C658 92 792 75 906 144C1043 227 1108 466 1354 476" stroke="#D9C9AD" stroke-width="12" stroke-linecap="round" opacity="0.65"/>
  <path d="M828 227C747 227 681 292 681 371C681 495 828 650 828 650C828 650 975 495 975 371C975 292 909 227 828 227Z" fill="#8D6842"/>
  <circle cx="828" cy="371" r="56" fill="#F7EFE3"/>
  <circle cx="828" cy="371" r="33" fill="#B69262"/>
  <circle cx="325" cy="579" r="18" fill="#B69262" opacity="0.65"/>
  <circle cx="1269" cy="341" r="14" fill="#D7B98D" opacity="0.75"/>
  <circle cx="1059" cy="676" r="22" fill="#C5AD88" opacity="0.55"/>
</svg>
